<?xml version="1.0" standalone="no"?>
<!DOCTYPE svg PUBLIC "-//W3C//DTD SVG 20010904//EN"
 "http://www.w3.org/TR/2001/REC-SVG-20010904/DTD/svg10.dtd">
<svg version="1.0" xmlns="http://www.w3.org/2000/svg"
 width="626.000000pt" height="417.000000pt" viewBox="0 0 626.000000 417.000000"
 preserveAspectRatio="xMidYMid meet">

<g transform="translate(0.000000,417.000000) scale(0.100000,-0.100000)"
fill="#000000" stroke="none">
<path d="M0 2085 l0 -2085 3130 0 3130 0 0 2085 0 2085 -809 0 c-706 0 -810
-2 -821 -15 -8 -10 -28 -14 -54 -13 l-41 1 40 4 c73 8 63 23 -15 23 l-75 -1
24 -19 c17 -15 19 -20 7 -20 -8 0 -20 9 -26 20 -9 17 -21 20 -80 20 -39 0 -70
-1 -70 -3 0 -2 7 -24 16 -50 l16 -46 -39 -46 -38 -46 -51 6 -51 6 -17 -41 c-9
-22 -16 -47 -16 -55 0 -14 35 -34 82 -49 12 -3 15 -11 11 -27 -6 -23 -7 -23
-16 -3 -5 12 -28 30 -53 42 l-43 21 22 61 22 61 55 -5 c54 -5 55 -5 88 34 l34
39 -17 51 -17 50 -2164 0 -2164 0 0 -2085z m4777 2043 c-3 -7 -5 -2 -5 12 0
14 2 19 5 13 2 -7 2 -19 0 -25z m73 -105 c0 -2 -20 13 -45 34 -25 20 -45 41
-45 45 0 4 20 -12 45 -34 25 -23 45 -43 45 -45z m907 50 c20 -9 54 -40 76 -69
l41 -52 38 19 c20 10 43 19 50 19 7 0 -7 -10 -32 -21 -24 -11 -46 -22 -48 -23
-2 -2 6 -22 17 -45 12 -22 21 -44 21 -48 -1 -4 -12 14 -26 40 -16 31 -29 45
-37 41 -7 -4 -32 -21 -57 -38 l-45 -31 30 -6 c28 -7 27 -7 -8 -6 -35 1 -45 -5
-103 -65 -35 -36 -63 -72 -61 -79 2 -8 2 -10 -1 -6 -2 4 -11 2 -20 -5 -16 -11
-16 -11 -1 6 11 11 16 32 14 55 -1 22 -1 25 2 7 l4 -29 60 59 c50 49 56 60 42
66 -14 5 -11 7 10 7 16 1 48 16 73 35 25 19 50 36 56 38 17 6 -4 38 -56 86
-55 50 -87 60 -122 37 -29 -19 -63 -86 -65 -130 -1 -23 -3 -25 -6 -8 -7 36 17
104 47 135 33 32 57 35 107 11z m-1172 -82 c-68 -11 -128 -47 -158 -93 -29
-45 -36 -45 -13 0 31 60 100 102 166 100 l45 -1 -40 -6z m1438 2 c-7 -2 -19
-2 -25 0 -7 3 -2 5 12 5 14 0 19 -2 13 -5z m67 -8 c16 -19 3 -19 -30 0 -24 13
-24 14 -4 15 12 0 27 -7 34 -15z m-1412 -9 c15 -8 36 -24 47 -37 18 -20 16
-20 -15 4 -20 14 -47 30 -60 36 -14 5 -19 10 -12 10 7 1 25 -5 40 -13z m-20
-20 c15 -8 38 -27 52 -42 23 -26 21 -25 -13 4 -44 38 -73 46 -132 40 -56 -7
-103 -41 -126 -92 -10 -23 -19 -34 -19 -25 0 25 42 81 79 106 40 27 116 31
159 9z m870 -78 c7 -7 8 -17 1 -30 -11 -20 -39 -24 -56 -6 -9 8 -21 2 -47 -24
-20 -20 -36 -32 -36 -27 0 6 12 21 28 34 15 14 36 34 47 45 23 22 45 26 63 8z
m607 2 c3 -6 -1 -7 -9 -4 -18 7 -21 14 -7 14 6 0 13 -4 16 -10z m-457 -5 c-7
-7 -118 -9 -125 -1 -3 3 24 6 62 6 38 0 66 -2 63 -5z m-1267 -74 c7 12 9 11 9
-3 0 -9 3 -25 6 -35 5 -15 4 -16 -5 -3 -9 12 -13 13 -20 2 -13 -21 -19 5 -12
53 l6 40 3 -34 c3 -26 6 -31 13 -20z m1699 29 c0 -5 -2 -10 -4 -10 -3 0 -8 5
-11 10 -3 6 -1 10 4 10 6 0 11 -4 11 -10z m-165 -20 c3 -5 2 -10 -4 -10 -5 0
-13 5 -16 10 -3 6 -2 10 4 10 5 0 13 -4 16 -10z m-497 -145 c15 -17 8 -12 -15
11 -24 24 -43 51 -43 61 0 12 5 9 16 -12 8 -16 27 -44 42 -60z m412 70 c20
-24 6 -28 -15 -5 -10 11 -13 20 -8 20 6 0 16 -7 23 -15z m-296 -80 c-9 -14
-18 -25 -21 -25 -5 0 5 18 20 38 17 22 18 13 1 -13z m-564 -50 c0 -8 -6 -15
-14 -15 -20 0 -29 17 -14 23 22 9 28 7 28 -8z m-659 -37 c9 -19 9 -21 -2 -10
-7 6 -21 12 -32 12 -10 0 -15 5 -12 10 11 17 34 11 46 -12z m339 -104 c0 -11
-5 -14 -16 -10 -9 3 -18 6 -20 6 -3 0 -2 5 1 10 10 16 35 12 35 -6z m805 -34
c-6 -9 -9 -9 -16 1 -10 17 0 34 13 21 6 -6 7 -16 3 -22z m-440 -109 c-15 -40
-25 -74 -23 -76 2 -1 64 -25 138 -53 74 -27 165 -62 202 -75 l67 -26 28 74
c15 42 31 71 36 66 5 -5 10 -37 12 -72 4 -61 2 -58 -11 21 l-6 35 -26 -65
c-14 -36 -26 -66 -27 -67 -1 -2 -104 35 -230 82 -156 59 -232 82 -239 75 -6
-6 -6 -13 0 -19 5 -5 84 -37 177 -71 92 -35 166 -64 164 -66 -2 -2 -78 23
-168 57 -90 33 -172 58 -182 55 -13 -3 -15 -1 -8 8 5 6 6 18 2 25 -6 9 -10 5
-13 -14 -6 -31 -11 -29 235 -120 86 -32 155 -60 153 -62 -2 -2 -90 28 -196 67
-105 40 -194 69 -197 66 -17 -16 19 -37 148 -85 192 -71 249 -94 245 -98 -1
-2 -22 3 -44 11 -23 9 -42 13 -42 11 0 -3 -17 4 -37 15 -41 20 -250 100 -264
100 -5 0 -9 -6 -9 -14 0 -8 31 -25 75 -41 42 -16 74 -30 72 -32 -3 -2 -34 7
-71 21 -63 24 -79 21 -58 -10 4 -6 66 -32 137 -58 118 -43 169 -65 155 -66 -3
0 -65 23 -139 50 -74 28 -136 48 -139 45 -15 -14 18 -34 112 -69 59 -21 105
-41 103 -43 -4 -3 -101 31 -179 62 -24 10 -23 -10 2 -35 11 -11 17 -20 14 -20
-19 0 33 -47 68 -62 24 -9 37 -17 30 -17 -7 -1 -22 4 -33 9 -30 17 -23 -5 12
-34 17 -14 28 -26 24 -26 -15 0 58 -80 73 -81 11 0 12 -3 5 -6 -10 -3 -10 -10
-3 -26 8 -17 7 -17 -7 3 -10 14 -46 59 -80 102 -120 147 -164 232 -182 346
l-8 47 -14 -50 c-7 -27 -15 -43 -17 -34 -1 9 14 61 35 115 31 83 46 108 91
153 29 29 55 51 58 49 2 -3 -7 -38 -21 -77z m875 -51 c0 -5 -9 -10 -21 -10
-11 0 -17 5 -14 10 3 6 13 10 21 10 8 0 14 -4 14 -10z m-1281 -199 c17 -16 31
-37 30 -48 0 -16 -1 -16 -9 2 -11 30 -30 42 -72 50 -31 6 -41 3 -62 -19 -37
-36 -35 -80 7 -119 29 -28 29 -30 5 -14 -26 16 -30 16 -52 2 -27 -18 -39 -69
-23 -100 9 -19 9 -19 -10 -3 -11 10 -39 19 -65 20 -35 2 -44 6 -36 15 7 9 14
9 28 1 29 -18 72 8 68 41 -2 20 -9 27 -33 29 -19 3 -33 -2 -42 -14 -7 -10 -13
-13 -13 -8 0 30 63 47 87 23 8 -8 17 -8 32 0 17 10 20 18 15 54 -5 37 -2 48
20 74 24 28 41 37 82 42 7 0 26 -12 43 -28z m1286 19 c4 -6 -9 -10 -32 -10
-28 0 -34 3 -23 10 20 13 47 13 55 0z m-460 -121 c-38 -100 -49 -117 -60 -100
-3 6 1 14 9 17 9 3 16 15 16 26 0 11 -5 18 -12 15 -7 -2 -12 -10 -10 -16 1 -8
-3 -9 -15 -3 -10 5 -25 12 -33 15 -10 5 -8 6 5 4 11 -1 26 2 34 7 11 7 9 12
-10 22 -23 12 -22 13 14 7 45 -7 52 17 10 34 l-28 12 30 -6 c17 -3 33 -11 37
-17 7 -11 25 28 36 79 4 18 8 23 10 14 2 -10 -13 -59 -33 -110z m-66 85 c41
-17 39 -17 44 4 3 11 5 8 6 -9 l1 -27 -62 25 c-35 14 -65 28 -68 30 -7 7 36
-6 79 -23z m408 10 c-3 -3 -12 -4 -19 -1 -8 3 -5 6 6 6 11 1 17 -2 13 -5z
m-924 -98 c-10 -34 -23 6 -16 50 l7 39 7 -35 c5 -19 6 -44 2 -54z m854 78 c-3
-3 -12 -4 -19 -1 -8 3 -5 6 6 6 11 1 17 -2 13 -5z m-95 -26 c-52 -16 -62 -22
-57 -36 5 -14 4 -15 -6 -4 -18 17 1 34 54 49 70 19 77 13 9 -9z m263 -100 c22
-91 40 -138 68 -183 21 -33 28 -49 17 -35 -42 47 -68 106 -95 213 -16 59 -33
107 -39 106 -24 -3 -37 2 -31 11 3 6 16 10 28 10 20 0 25 -13 52 -122z m19 44
c10 -35 15 -66 12 -70 -3 -3 -6 -1 -6 4 0 5 -9 40 -20 78 -11 38 -16 65 -11
60 4 -5 16 -38 25 -72z m-774 46 c10 -6 7 -7 -10 -2 -14 3 -32 11 -40 16 -10
6 -7 7 10 2 14 -3 32 -11 40 -16z m220 12 c8 -5 11 -10 5 -10 -5 0 -17 5 -25
10 -8 5 -10 10 -5 10 6 0 17 -5 25 -10z m-140 -42 c10 -6 7 -7 -10 -2 -14 3
-32 11 -40 16 -10 6 -7 7 10 2 14 -3 32 -11 40 -16z m80 -30 c10 -6 7 -7 -10
-2 -14 3 -32 11 -40 16 -10 6 -7 7 10 2 14 -3 32 -11 40 -16z m349 -101 c19
-70 31 -139 28 -158 -4 -33 -4 -33 -5 6 -1 23 -17 93 -35 158 -19 64 -31 117
-27 117 4 0 21 -56 39 -123z m-758 49 c5 -6 9 -19 9 -29 0 -16 -3 -17 -15 -7
-9 7 -15 27 -14 49 1 21 3 28 6 16 3 -11 9 -24 14 -29z m209 -12 c39 -15 69
-28 67 -30 -4 -4 -138 44 -146 52 -9 8 10 3 79 -22z m209 15 l31 -11 -24 -19
c-24 -19 -25 -19 -80 2 -31 12 -55 24 -53 26 3 2 27 -5 54 -16 36 -14 54 -16
68 -9 17 10 16 12 -11 24 -36 16 -27 18 15 3z m-1050 -34 c16 -8 31 -22 35
-31 4 -10 -4 -7 -25 10 -40 34 -74 33 -110 -3 -29 -29 -40 -29 -16 1 30 38 72
46 116 23z m1678 -7 c-3 -8 -6 -5 -6 6 -1 11 2 17 5 13 3 -3 4 -12 1 -19z
m-699 -27 c7 -4 -4 -7 -24 -7 -20 0 -31 2 -24 4 9 3 9 6 -1 14 -15 10 26 1 49
-11z m89 -15 c-4 -9 -14 -15 -24 -15 -17 1 -17 2 0 6 13 3 17 11 13 25 -3 15
-2 18 6 10 6 -6 8 -18 5 -26z m53 4 c-11 -16 -35 -39 -53 -52 -24 -16 -19 -9
18 29 58 60 64 64 35 23z m610 -71 c12 -16 19 -29 15 -29 -10 0 -65 93 -65
109 1 9 7 1 15 -17 8 -18 24 -47 35 -63z m-810 59 c10 -6 7 -7 -10 -2 -14 3
-32 11 -40 16 -10 6 -7 7 10 2 14 -3 32 -11 40 -16z m-616 -47 c16 -18 16 -18
-9 -14 -25 5 -31 14 -18 26 9 9 8 10 27 -12z m586 9 c8 -5 11 -10 5 -10 -5 0
-17 5 -25 10 -8 5 -10 10 -5 10 6 0 17 -5 25 -10z m-987 -40 c4 -17 2 -18 -14
-9 -10 5 -19 19 -19 31 0 16 3 18 14 9 8 -6 16 -20 19 -31z m696 16 c-10 -9
-69 -36 -69 -32 0 7 52 35 64 36 5 0 7 -2 5 -4z m431 -1 c0 -6 -56 -35 -67
-35 -4 1 8 9 27 20 39 22 40 22 40 15z m-365 -33 c-3 -3 -11 0 -18 7 -9 10 -8
11 6 5 10 -3 15 -9 12 -12z m-40 -2 c-4 -6 -1 -19 6 -28 12 -16 12 -16 -5 0
-16 14 -15 38 0 38 3 0 2 -5 -1 -10z m125 -32 l34 -43 -35 30 c-19 17 -35 36
-35 43 -1 17 -2 17 36 -30z m-268 -12 c-41 -44 -66 -105 -55 -133 4 -11 2 -14
-8 -11 -30 10 1 90 59 151 50 52 53 47 4 -7z m33 -20 c0 -15 -4 -21 -9 -16 -5
5 -6 16 -3 24 9 22 12 20 12 -8z m200 4 c18 -8 17 -9 -7 -9 -16 -1 -28 4 -28
9 0 12 8 12 35 0z m-61 -19 c4 -5 -3 -7 -14 -4 -23 6 -26 13 -6 13 8 0 17 -4
20 -9z m1166 -16 c14 -19 14 -19 -2 -6 -10 7 -18 18 -18 24 0 6 1 8 3 6 1 -2
9 -13 17 -24z m-957 -76 c5 -18 3 -18 -24 2 -16 11 -26 25 -23 31 3 5 -4 22
-17 36 -13 15 -5 10 18 -12 23 -21 44 -47 46 -57z m-303 77 c0 -3 -4 -8 -10
-11 -5 -3 -10 -1 -10 4 0 6 5 11 10 11 6 0 10 -2 10 -4z m-107 -31 c-3 -9 -8
-14 -10 -11 -3 3 -2 9 2 15 9 16 15 13 8 -4z m1164 9 c-3 -3 -12 -4 -19 -1 -8
3 -5 6 6 6 11 1 17 -2 13 -5z m-149 -38 c31 12 71 25 87 28 17 4 0 -5 -37 -18
-88 -32 -97 -38 -72 -47 16 -6 15 -8 -8 -8 -16 -1 -28 -7 -28 -13 0 -10 -2
-10 -8 -1 -4 7 -5 31 -3 55 5 38 6 39 9 12 l3 -31 57 23z m-998 0 c0 -2 -7 -7
-16 -10 -8 -3 -12 -2 -9 4 6 10 25 14 25 6z m414 -62 c3 -8 2 -12 -4 -9 -6 3
-10 10 -10 16 0 14 7 11 14 -7z m1046 -95 c0 -18 -20 1 -36 34 l-15 32 25 -28
c15 -15 26 -33 26 -38z m-1435 -79 c10 -11 14 -20 9 -20 -5 0 -15 9 -22 20 -7
11 -11 20 -9 20 2 0 12 -9 22 -20z m-88 -97 c-7 -7 -23 26 -30 62 -5 24 -2 22
14 -13 11 -24 18 -46 16 -49z m491 78 c11 -6 10 -10 -3 -15 -10 -3 -15 -12
-12 -21 4 -9 1 -12 -9 -8 -13 5 -13 8 1 23 13 14 13 19 3 23 -7 3 -8 6 -3 6 6
0 16 -3 23 -8z m42 -28 c-5 -20 -17 -43 -27 -52 -10 -9 -15 -12 -10 -7 4 6 7
17 7 26 0 20 23 70 31 70 4 0 3 -16 -1 -37z m-65 -107 c-19 -29 -61 -45 -43
-17 9 14 26 26 56 40 1 0 -5 -10 -13 -23z m515 -51 c0 -8 -4 -17 -10 -20 -6
-4 -10 5 -10 20 0 15 4 24 10 20 6 -3 10 -12 10 -20z m-1076 -138 c-16 -9 -16
-11 0 -22 14 -11 13 -12 -14 -10 -17 1 -39 10 -48 19 -15 15 -13 16 23 16 37
0 38 1 19 15 -18 14 -17 14 9 3 25 -10 26 -13 11 -21z m-142 -79 c-8 -8 -9 -4
-5 13 4 13 8 18 11 10 2 -7 -1 -18 -6 -23z m1052 -193 c15 -24 34 -49 44 -54
15 -9 15 -10 0 -11 -9 0 -30 22 -47 50 l-31 50 -47 -21 c-27 -11 -52 -24 -57
-29 -5 -5 -3 -30 4 -59 l12 -51 -46 -46 -46 -46 -51 11 c-27 6 -52 11 -55 11
-7 0 -44 -89 -44 -105 0 -8 20 -26 45 -41 36 -21 45 -31 44 -52 -2 -25 -2 -25
-6 -4 -3 14 -23 35 -54 53 -27 17 -49 32 -49 34 0 2 12 31 26 64 29 65 34 68
98 50 38 -11 40 -10 83 34 l45 44 -13 44 c-7 24 -16 49 -21 55 -10 14 0 24 23
24 9 0 36 9 60 20 24 11 47 20 51 20 3 0 18 -20 32 -45z m301 8 c57 -27 44
-25 -32 6 l-53 21 -25 -40 c-14 -22 -25 -46 -25 -55 0 -17 -9 -19 -30 -5 -11
7 -11 10 -2 10 7 0 27 23 44 50 35 56 34 56 123 13z m-796 -14 c-17 -10 -24 4
-14 29 6 16 7 16 17 -2 8 -14 7 -21 -3 -27z m-29 11 c0 -5 -2 -10 -4 -10 -3 0
-8 5 -11 10 -3 6 -1 10 4 10 6 0 11 -4 11 -10z m857 -52 c-3 -8 -6 -5 -6 6 -1
11 2 17 5 13 3 -3 4 -12 1 -19z m-859 -13 c-3 -3 -9 2 -12 12 -6 14 -5 15 5 6
7 -7 10 -15 7 -18z m849 -27 c-3 -8 -6 -5 -6 6 -1 11 2 17 5 13 3 -3 4 -12 1
-19z m28 -68 l40 -44 -42 34 c-23 19 -42 41 -42 49 -1 8 0 12 2 10 1 -2 20
-24 42 -49z m-170 -79 c22 -10 51 -31 65 -47 l25 -29 -30 27 c-17 15 -47 34
-67 42 -101 43 -227 -11 -272 -114 -8 -19 -15 -29 -16 -22 -1 45 84 142 135
155 46 11 122 6 160 -12z m-835 -16 c0 -8 -7 -15 -15 -15 -16 0 -20 12 -8 23
11 12 23 8 23 -8z m823 -9 c18 -7 43 -26 57 -41 23 -26 21 -25 -18 5 -33 26
-54 34 -97 38 -68 6 -104 -9 -149 -59 -32 -35 -40 -55 -49 -134 -3 -20 -4 -15
-5 15 -2 49 24 115 54 142 54 48 141 62 207 34z m-790 -93 c4 -3 3 -11 -3 -17
-6 -8 -4 -30 4 -61 12 -48 14 -50 47 -48 22 1 9 -5 -36 -17 -38 -11 -77 -19
-85 -19 -8 1 4 6 28 12 24 7 43 15 43 20 1 22 -14 88 -21 92 -8 5 -139 -23
-149 -31 -2 -2 2 -25 9 -53 11 -49 13 -50 43 -46 29 4 29 4 7 -4 -42 -15 -46
-13 -58 41 -7 28 -20 57 -30 64 -25 19 -8 30 83 52 91 22 109 25 118 15z m516
-128 l1 -30 -13 25 c-7 14 -10 41 -8 60 l5 35 7 -30 c4 -16 7 -43 8 -60z
m-763 50 c-4 -14 -2 -44 4 -65 10 -36 14 -40 43 -41 21 -1 25 -3 12 -6 -11 -3
-24 -9 -29 -14 -6 -5 -21 -9 -35 -9 -15 0 -69 -12 -121 -26 -52 -14 -106 -28
-120 -30 -83 -17 -290 -68 -300 -74 -7 -4 -11 -12 -9 -18 3 -6 59 4 143 24 77
19 144 33 150 31 5 -2 -18 -9 -53 -17 -63 -13 -63 -13 -58 -44 15 -85 15 -95
0 -38 -16 61 -25 70 -51 54 -10 -7 -8 -26 8 -93 23 -97 24 -109 9 -109 -5 0
-8 4 -4 9 3 5 2 12 -3 15 -5 3 -17 42 -27 86 l-19 82 -35 -7 c-20 -3 -43 -8
-51 -10 -9 -3 -20 5 -26 20 -14 29 -9 35 25 35 27 0 129 25 138 33 8 8 -18 91
-34 109 -14 16 -13 18 8 27 13 5 57 17 96 26 76 18 113 15 95 -8 -6 -8 -5 -27
2 -57 11 -45 34 -60 71 -46 16 6 1 81 -23 109 -11 12 -12 21 -5 28 11 11 144
46 182 48 20 1 22 -2 17 -24z m434 -24 c0 -5 3 -16 6 -25 4 -11 0 -16 -12 -16
-13 0 -15 3 -7 8 7 4 9 13 4 20 -5 9 -16 9 -41 2 -51 -14 -62 -10 -15 5 49 16
65 18 65 6z m157 -36 c-3 -7 -16 -19 -29 -25 l-23 -11 23 17 c12 9 22 26 23
38 0 11 3 15 6 8 3 -7 2 -19 0 -27z m-190 -11 c-3 -3 -12 -4 -19 -1 -8 3 -5 6
6 6 11 1 17 -2 13 -5z m-44 -12 c-12 -7 -11 -60 1 -80 4 -7 2 -20 -3 -29 -10
-17 -10 -17 -11 1 0 44 -23 96 -42 96 -10 0 -21 -7 -25 -16 -3 -9 -8 -12 -12
-5 -5 7 -32 4 -81 -9 -41 -11 -82 -19 -90 -19 -17 1 237 68 260 68 10 1 11 -2
3 -7z m177 -17 c0 -2 -10 -9 -22 -15 -22 -11 -22 -10 -4 4 21 17 26 19 26 11z
m-253 -57 c-3 -8 -6 -5 -6 6 -1 11 2 17 5 13 3 -3 4 -12 1 -19z m-210 6 c-3
-3 -12 -4 -19 -1 -8 3 -5 6 6 6 11 1 17 -2 13 -5z m-117 -28 l-85 -22 2 -35 2
-34 -10 33 c-5 17 -15 32 -22 33 -18 1 155 47 178 47 11 0 -18 -10 -65 -22z
m157 2 c-3 -8 -6 -5 -6 6 -1 11 2 17 5 13 3 -3 4 -12 1 -19z m-80 -20 c-3 -8
-6 -5 -6 6 -1 11 2 17 5 13 3 -3 4 -12 1 -19z m260 0 c-3 -8 -6 -5 -6 6 -1 11
2 17 5 13 3 -3 4 -12 1 -19z m-170 -20 c-3 -8 -6 -5 -6 6 -1 11 2 17 5 13 3
-3 4 -12 1 -19z m-300 6 c-3 -3 -12 -4 -19 -1 -8 3 -5 6 6 6 11 1 17 -2 13 -5z
m545 -16 c-7 -7 -12 -8 -12 -2 0 14 12 26 19 19 2 -3 -1 -11 -7 -17z m912 14
c2 -4 -4 -13 -14 -19 -15 -10 -17 -9 -13 8 5 20 18 25 27 11z m-1489 -33 c4
-17 4 -33 1 -36 -3 -4 -6 3 -6 15 0 11 -7 28 -16 36 -13 14 -13 16 -1 16 9 0
18 -13 22 -31z m252 9 c-3 -8 -6 -5 -6 6 -1 11 2 17 5 13 3 -3 4 -12 1 -19z
m90 -20 c-3 -8 -6 -5 -6 6 -1 11 2 17 5 13 3 -3 4 -12 1 -19z m-80 -20 c-3 -8
-6 -5 -6 6 -1 11 2 17 5 13 3 -3 4 -12 1 -19z m-170 -20 c-3 -8 -6 -5 -6 6 -1
11 2 17 5 13 3 -3 4 -12 1 -19z m873 -14 c0 -23 -15 -23 -26 1 -9 19 -8 22 8
17 10 -2 18 -10 18 -18z m-953 -6 c-3 -8 -6 -5 -6 6 -1 11 2 17 5 13 3 -3 4
-12 1 -19z m260 0 c-3 -8 -6 -5 -6 6 -1 11 2 17 5 13 3 -3 4 -12 1 -19z m-170
-20 c-3 -8 -6 -5 -6 6 -1 11 2 17 5 13 3 -3 4 -12 1 -19z m433 12 c0 -5 -5
-10 -11 -10 -5 0 -7 5 -4 10 3 6 8 10 11 10 2 0 4 -4 4 -10z m-513 -32 c-3 -8
-6 -5 -6 6 -1 11 2 17 5 13 3 -3 4 -12 1 -19z m90 -20 c-3 -8 -6 -5 -6 6 -1
11 2 17 5 13 3 -3 4 -12 1 -19z m273 18 c0 -3 -4 -8 -10 -11 -5 -3 -10 -1 -10
4 0 6 5 11 10 11 6 0 10 -2 10 -4z m-353 -38 c-3 -8 -6 -5 -6 6 -1 11 2 17 5
13 3 -3 4 -12 1 -19z m260 6 c2 -5 -5 -10 -15 -10 -10 0 -19 6 -19 12 0 14 29
12 34 -2z m347 -48 c-3 -9 -10 -16 -14 -16 -12 0 -23 57 -14 71 10 16 36 -35
28 -55z m-777 22 c-3 -8 -6 -5 -6 6 -1 11 2 17 5 13 3 -3 4 -12 1 -19z m284 8
c12 7 12 5 0 -9 -15 -19 -31 -14 -31 11 0 14 2 14 9 3 5 -8 14 -10 22 -5z m86
-2 c-3 -3 -12 -4 -19 -1 -8 3 -5 6 6 6 11 1 17 -2 13 -5z m-190 -41 c-3 -3
-10 -2 -16 2 -7 4 -7 10 2 20 10 11 13 11 15 -2 2 -8 1 -17 -1 -20z m150 31
c-3 -3 -12 -4 -19 -1 -8 3 -5 6 6 6 11 1 17 -2 13 -5z m-279 -40 c27 4 31 3
17 -4 l-20 -9 20 -1 c14 -1 10 -5 -13 -11 -28 -9 -32 -13 -27 -37 5 -23 4 -22
-10 7 -8 18 -14 45 -14 60 1 18 3 21 6 8 4 -16 11 -18 41 -13z m69 10 c-3 -3
-12 -4 -19 -1 -8 3 -5 6 6 6 11 1 17 -2 13 -5z m1331 -15 c-2 -6 -8 -10 -13
-10 -5 0 -11 4 -13 10 -2 6 4 11 13 11 9 0 15 -5 13 -11z m-1491 -33 c-3 -7 0
-19 6 -25 9 -9 8 -11 -5 -6 -20 8 -25 45 -7 45 6 0 9 -6 6 -14z m343 -56 c13
-24 2 -50 -11 -29 -9 15 -12 49 -4 49 2 0 9 -9 15 -20z m1174 -148 c6 -21 5
-40 -2 -56 -8 -19 -6 -27 11 -47 l22 -23 -25 21 c-17 15 -33 20 -52 16 -20 -4
-33 1 -52 20 -32 32 -32 46 -5 81 17 22 28 26 57 24 31 -3 38 -7 46 -36z
m-1134 -32 c0 -20 -2 -22 -10 -10 -5 8 -10 26 -10 40 0 20 2 22 10 10 5 -8 10
-26 10 -40z m1515 30 c3 -5 -3 -10 -14 -10 -11 0 -23 5 -26 10 -3 6 3 10 14
10 11 0 23 -4 26 -10z m-125 -155 c0 -6 -8 -11 -18 -11 -15 0 -16 4 -8 22 10
22 25 15 26 -11z m-1002 -86 c-17 -12 -48 -11 -48 0 0 13 21 19 43 13 15 -4
16 -7 5 -13z m-623 -133 c12 -12 12 -15 -1 -20 -26 -10 -32 -7 -27 14 6 24 10
25 28 6z m420 -26 c-3 -5 -16 -10 -28 -10 -18 0 -19 2 -7 10 20 13 43 13 35 0z
m815 -62 c0 -13 -23 -5 -28 10 -2 7 2 10 12 6 9 -3 16 -11 16 -16z"/>
<path d="M5480 3871 c0 -5 9 -7 20 -4 11 3 20 7 20 9 0 2 -9 4 -20 4 -11 0
-20 -4 -20 -9z"/>
<path d="M5490 3850 c-12 -8 -11 -10 8 -10 12 0 22 5 22 10 0 13 -11 13 -30 0z"/>
<path d="M5018 3347 c-26 -22 -68 -84 -68 -101 0 -5 6 -3 14 3 7 6 20 9 28 6
11 -4 21 10 37 51 12 31 20 58 18 60 -1 2 -15 -7 -29 -19z"/>
<path d="M4758 1328 c-43 -11 -78 -25 -78 -30 0 -6 8 -7 17 -4 10 4 50 14 90
23 40 9 73 20 73 25 0 11 -12 9 -102 -14z"/>
<path d="M4513 1267 c-46 -11 -83 -24 -83 -29 0 -5 8 -7 18 -4 9 3 49 13 87
22 39 9 74 21 80 25 13 13 -9 10 -102 -14z"/>
<path d="M4521 1242 l-63 -16 6 -45 c3 -25 10 -49 14 -53 7 -7 136 23 148 35
9 9 -18 97 -30 96 -6 0 -40 -8 -75 -17z"/>
<path d="M4268 1208 c-43 -11 -78 -24 -78 -28 0 -9 161 29 175 41 13 13 -9 10
-97 -13z"/>
<path d="M4275 1183 c-33 -9 -61 -17 -63 -18 -2 -1 2 -23 9 -49 13 -52 17 -53
99 -34 59 14 66 23 53 75 -10 44 -18 46 -98 26z"/>
<path d="M5660 580 c-11 -11 -20 -27 -20 -35 0 -21 36 -55 59 -55 48 0 68 67
29 94 -30 21 -44 20 -68 -4z"/>
</g>
</svg>
