<?xml version="1.0" standalone="no"?>
<!DOCTYPE svg PUBLIC "-//W3C//DTD SVG 20010904//EN"
 "http://www.w3.org/TR/2001/REC-SVG-20010904/DTD/svg10.dtd">
<svg version="1.0" xmlns="http://www.w3.org/2000/svg"
 width="626.000000pt" height="417.000000pt" viewBox="0 0 626.000000 417.000000"
 preserveAspectRatio="xMidYMid meet">

<g transform="translate(0.000000,417.000000) scale(0.100000,-0.100000)"
fill="#000000" stroke="none">
<path d="M0 2085 l0 -2085 3130 0 3130 0 0 2085 0 2085 -3130 0 -3130 0 0
-2085z m2969 1936 c13 -23 -10 -47 -34 -37 -18 7 -20 42 -2 49 21 9 26 7 36
-12z m1481 10 c0 -5 -7 -12 -16 -15 -14 -5 -15 -4 -4 9 14 17 20 19 20 6z
m-670 -51 c0 -5 -7 -10 -15 -10 -8 0 -15 5 -15 10 0 6 7 10 15 10 8 0 15 -4
15 -10z m580 -4 c0 -3 -4 -8 -10 -11 -5 -3 -10 -1 -10 4 0 6 5 11 10 11 6 0
10 -2 10 -4z m-3861 -127 c-18 -11 -49 -12 -49 -1 0 20 23 31 43 20 16 -8 17
-12 6 -19z m3691 27 c0 -3 -4 -8 -10 -11 -5 -3 -10 -1 -10 4 0 6 5 11 10 11 6
0 10 -2 10 -4z m-2158 -51 c0 -5 -5 -11 -11 -13 -6 -2 -11 4 -11 13 0 9 5 15
11 13 6 -2 11 -8 11 -13z m2705 -27 c-3 -7 -5 -2 -5 12 0 14 2 19 5 13 2 -7 2
-19 0 -25z m-112 12 c3 -5 1 -10 -4 -10 -6 0 -11 5 -11 10 0 6 2 10 4 10 3 0
8 -4 11 -10z m-2125 -193 l25 -10 -25 -6 c-23 -6 -38 -27 -56 -76 -7 -19 -8
-18 -12 5 -2 13 -12 35 -23 48 -17 22 -17 27 -4 59 8 20 15 38 15 41 0 2 12
-8 28 -23 15 -15 38 -32 52 -38z m2234 -76 c-5 -4 -36 -22 -69 -40 -62 -33
-58 -29 23 25 42 27 71 37 46 15z m-544 -1 c0 -5 -2 -10 -4 -10 -3 0 -8 5 -11
10 -3 6 -1 10 4 10 6 0 11 -4 11 -10z m-739 -49 c36 -34 39 -41 29 -60 -6 -12
-16 -19 -22 -15 -5 4 -2 -5 7 -20 9 -14 22 -23 28 -19 5 3 7 1 4 -4 -11 -17
31 -63 51 -56 9 3 14 3 10 -2 -4 -4 -2 -15 5 -24 26 -33 -54 32 -90 73 -46 52
-68 50 -53 -4 13 -44 5 -51 -9 -8 -7 18 -26 42 -43 53 -17 11 -34 27 -36 35
-2 8 4 5 13 -8 22 -30 80 -28 80 3 0 11 4 26 9 34 6 10 2 20 -14 33 -29 24
-36 23 -65 -7 -14 -13 -25 -20 -25 -15 0 12 50 50 67 50 7 0 32 -18 54 -39z
m-511 14 c0 -8 -7 -15 -15 -15 -8 0 -15 7 -15 15 0 8 7 15 15 15 8 0 15 -7 15
-15z m1660 -40 c0 -2 -13 -11 -30 -20 -38 -19 -40 -11 -2 9 31 17 32 18 32 11z
m-3196 -20 c-4 -8 -1 -22 6 -30 7 -9 10 -27 6 -45 -3 -17 -1 -42 5 -56 9 -25
7 -24 -33 12 -35 32 -43 45 -44 77 -2 29 1 35 11 27 8 -7 17 -4 30 10 22 24
26 25 19 5z m2694 -12 c32 -27 37 -64 12 -95 -11 -15 -30 -28 -42 -30 -13 -2
-25 -14 -30 -30 -8 -24 -5 -31 19 -54 l28 -26 -29 21 c-23 17 -31 19 -39 9 -8
-12 -4 21 9 65 3 9 0 17 -6 17 -6 0 -8 5 -4 13 5 6 -21 -14 -56 -46 -64 -58
-127 -98 -152 -96 -7 0 10 11 37 23 28 13 63 37 78 53 25 27 26 31 11 37 -10
4 -22 2 -28 -4 -15 -15 -29 -12 -22 5 6 17 -28 35 -65 35 -16 0 -19 -7 -19
-49 0 -57 -17 -79 -49 -61 -24 12 -25 20 -10 54 7 14 17 22 25 19 8 -3 14 1
14 8 0 7 -3 9 -6 6 -10 -9 -46 12 -39 24 4 5 -14 10 -42 11 l-48 1 45 4 c31 3
51 11 63 26 l18 22 -11 -22 c-10 -21 -8 -23 21 -23 18 0 66 -12 106 -26 71
-25 75 -26 94 -8 15 13 18 25 13 50 -5 27 -1 38 20 58 29 30 56 33 84 9z
m-304 -8 c-4 -8 -8 -15 -10 -15 -2 0 -4 7 -4 15 0 8 4 15 10 15 5 0 7 -7 4
-15z m736 0 c0 -2 -10 -9 -22 -15 -22 -11 -22 -10 -4 4 21 17 26 19 26 11z
m-60 -40 c-7 -8 -17 -12 -22 -9 -6 4 -5 10 3 15 22 14 33 10 19 -6z m-3426
-61 c7 -19 -10 -44 -31 -44 -17 0 -27 24 -19 45 7 20 42 19 50 -1z m2589 9
c-7 -2 -19 -2 -25 0 -7 3 -2 5 12 5 14 0 19 -2 13 -5z m2264 -103 c-7 -27 7
-25 26 3 l16 22 -5 -25 -5 -25 15 25 c15 25 15 24 10 -15 l-5 -40 21 35 c12
19 19 28 17 20 -2 -8 -7 -26 -11 -40 l-7 -25 15 25 c19 32 19 27 1 -34 -17
-57 -13 -70 9 -29 20 36 20 23 1 -24 -18 -42 -18 -46 -5 -38 13 8 13 -5 0 -25
-9 -13 -10 -13 -10 0 -1 12 -3 11 -11 -3 -5 -9 -8 -20 -6 -25 3 -4 -22 -7 -55
-8 -47 0 -64 -5 -74 -19 -21 -28 -17 -43 14 -60 15 -9 19 -14 10 -11 -9 3 -19
0 -22 -7 -2 -7 -5 -4 -5 6 -1 9 -5 17 -9 17 -5 0 -7 40 -6 89 2 81 5 95 39
160 37 71 52 89 42 51z m-4431 -41 c10 -17 -13 -36 -27 -22 -12 12 -4 33 11
33 5 0 12 -5 16 -11z m4545 -96 c-12 -20 -14 -14 -5 12 4 9 9 14 11 11 3 -2 0
-13 -6 -23z m-4061 -17 c0 -8 -5 -18 -11 -22 -14 -8 -33 11 -25 25 10 16 36
13 36 -3z m2390 -61 c0 -8 -4 -15 -9 -15 -13 0 -22 16 -14 24 11 11 23 6 23
-9z m800 -25 c0 -5 -4 -10 -10 -10 -5 0 -10 5 -10 10 0 6 5 10 10 10 6 0 10
-4 10 -10z m-1198 -61 c37 -50 -20 -117 -77 -91 -46 21 -52 86 -11 115 22 15
69 2 88 -24z m488 -59 c27 -64 -59 -121 -105 -70 -10 11 -30 21 -44 21 -24 2
-24 2 -3 6 26 5 30 39 5 46 -14 4 -14 5 3 6 12 0 27 7 34 15 28 35 92 21 110
-24z m-3875 -50 c3 -5 1 -10 -4 -10 -6 0 -11 5 -11 10 0 6 2 10 4 10 3 0 8 -4
11 -10z m2682 -92 c-3 -8 -6 -5 -6 6 -1 11 2 17 5 13 3 -3 4 -12 1 -19z m587
-14 c3 -8 2 -12 -4 -9 -6 3 -10 10 -10 16 0 14 7 11 14 -7z m2097 -26 c7 -28
1 -29 -48 -6 -21 10 -21 12 -5 24 25 20 45 13 53 -18z m-5631 -12 c0 -3 -4 -8
-10 -11 -5 -3 -10 -1 -10 4 0 6 5 11 10 11 6 0 10 -2 10 -4z m564 -12 c3 -9 4
-20 1 -24 -9 -15 -35 1 -35 21 0 23 25 25 34 3z m3436 -29 c0 -8 -4 -15 -9
-15 -13 0 -22 16 -14 24 11 11 23 6 23 -9z m-811 -74 c0 -25 -8 -68 -18 -95
l-17 -50 -75 75 c-41 41 -75 81 -77 89 -2 11 2 10 12 -3 9 -12 21 -17 34 -13
12 4 19 2 19 -8 0 -9 -6 -12 -16 -8 -14 5 -14 3 -3 -11 8 -9 21 -13 30 -10 24
9 33 25 21 39 -11 13 37 58 52 48 5 -3 9 0 9 7 0 8 4 8 15 -1 10 -8 15 -29 14
-59z m-1949 -196 c0 -8 -7 -15 -15 -15 -8 0 -15 7 -15 15 0 8 7 15 15 15 8 0
15 -7 15 -15z m1705 -15 c0 -18 -6 -26 -23 -28 -24 -4 -38 18 -28 44 3 9 15
14 28 12 17 -2 23 -10 23 -28z m1840 0 c3 -5 1 -10 -4 -10 -6 0 -11 5 -11 10
0 6 2 10 4 10 3 0 8 -4 11 -10z m-4117 -95 c80 -46 136 -73 146 -69 19 7 33
-21 18 -39 -6 -6 -12 -23 -15 -37 l-4 -25 -2 26 c0 15 -9 36 -18 47 -25 30
-263 163 -275 155 -7 -3 -8 -1 -4 5 4 7 11 12 15 12 5 0 67 -34 139 -75z
m-168 50 c0 -2 -13 -11 -30 -20 -38 -19 -40 -11 -2 9 31 17 32 18 32 11z
m3228 -107 c15 -18 60 -24 78 -10 5 4 1 -1 -9 -10 -11 -10 -26 -18 -35 -18
-26 0 -62 41 -61 69 1 21 2 22 6 6 3 -11 12 -28 21 -37z m501 -2 c8 -10 8 -21
1 -41 -10 -27 -11 -27 -25 -9 -30 40 -7 88 24 50z m-3949 -20 c0 -2 -7 -9 -15
-16 -12 -10 -15 -10 -15 4 0 9 7 16 15 16 8 0 15 -2 15 -4z m3440 -46 c0 -21
-33 -29 -45 -10 -9 15 4 30 26 30 12 0 19 -7 19 -20z m-3457 -299 c-9 -12 -25
20 -18 36 7 16 9 15 15 -7 4 -14 5 -27 3 -29z m2467 39 c0 -5 -5 -10 -11 -10
-5 0 -7 5 -4 10 3 6 8 10 11 10 2 0 4 -4 4 -10z m-1850 -65 c17 -9 30 -18 30
-21 0 -3 -16 3 -36 15 -19 12 -46 21 -58 21 -13 0 -81 -32 -150 -72 l-126 -72
0 -157 c0 -177 -6 -163 93 -218 31 -18 57 -35 57 -37 0 -3 -37 15 -82 40 -46
25 -82 48 -80 51 1 3 2 82 2 175 0 140 2 170 14 170 18 0 241 126 257 146 10
13 14 12 31 -6 10 -11 32 -27 48 -35z m2548 28 c4 -24 -26 -40 -34 -18 -8 21
3 47 19 43 6 -3 13 -14 15 -25z m-2341 -129 c25 8 45 -7 37 -27 -3 -9 -10 -17
-15 -17 -5 0 -10 -21 -11 -47 -1 -40 -2 -42 -5 -13 -7 65 -21 84 -98 129 -41
24 -75 46 -75 48 0 2 34 -14 75 -37 43 -24 82 -39 92 -36z m3909 20 c-27 -28
-35 -51 -13 -38 6 4 9 4 5 -1 -4 -4 14 -18 40 -31 26 -12 42 -23 36 -23 -12
-1 -83 28 -139 55 -28 14 -28 15 -4 10 20 -4 32 1 54 24 16 17 33 30 38 30 5
0 -2 -12 -17 -26z m-536 -14 c0 -5 -4 -10 -10 -10 -5 0 -10 5 -10 10 0 6 5 10
10 10 6 0 10 -4 10 -10z m186 -1 c10 -17 -13 -36 -27 -22 -12 12 -4 33 11 33
5 0 12 -5 16 -11z m-641 -38 c7 -12 -12 -24 -25 -16 -11 7 -4 25 10 25 5 0 11
-4 15 -9z m875 -92 c-26 -59 -25 -72 9 -110 25 -27 32 -30 45 -19 9 7 16 9 16
4 0 -5 12 9 26 31 28 42 27 40 -13 -68 -27 -72 -39 -82 -109 -94 -29 -5 -32
-2 -48 40 l-17 46 31 68 c61 131 72 154 76 150 3 -2 -5 -24 -16 -48z m-3360
-40 c0 -5 -7 -9 -15 -9 -15 0 -20 12 -9 23 8 8 24 -1 24 -14z m570 -9 c0 -5
-4 -10 -10 -10 -5 0 -10 5 -10 10 0 6 5 10 10 10 6 0 10 -4 10 -10z m961 -70
c12 -33 19 -36 38 -17 11 10 11 8 2 -10 -16 -32 -14 -43 12 -53 15 -6 17 -9 5
-9 -16 -1 -19 -23 -5 -37 13 -13 7 -27 -6 -15 -8 6 -17 8 -21 4 -4 -4 -4 0 -1
8 3 9 -1 21 -8 28 -12 9 -18 8 -31 -4 -20 -21 -50 -16 -54 9 -4 20 33 60 48
51 14 -9 12 49 -2 63 -9 9 -9 12 1 12 6 0 17 -13 22 -30z m263 14 c9 -3 16
-17 16 -30 0 -19 -5 -24 -24 -24 -28 0 -37 17 -24 43 10 19 10 19 32 11z m-74
-54 c0 -5 -2 -10 -4 -10 -3 0 -8 5 -11 10 -3 6 -1 10 4 10 6 0 11 -4 11 -10z
m-879 -23 c-1 -12 -15 -9 -19 4 -3 6 1 10 8 8 6 -3 11 -8 11 -12z m-322 -52
l20 -35 -22 0 c-12 0 -32 -3 -45 -6 -24 -7 -24 3 1 54 14 30 21 28 46 -13z
m-929 3 c0 -6 -3 -8 -7 -5 -3 4 -26 -4 -50 -18 -23 -14 -63 -37 -88 -51 -25
-14 -45 -24 -45 -21 0 3 36 26 79 51 44 25 83 50 86 56 8 12 25 4 25 -12z
m-370 -114 c0 -2 -9 0 -20 6 -11 6 -20 13 -20 16 0 2 9 0 20 -6 11 -6 20 -13
20 -16z m-480 -46 c0 -6 -6 -5 -15 2 -8 7 -15 14 -15 16 0 2 7 1 15 -2 8 -4
15 -11 15 -16z m571 8 c-8 -9 -11 -63 -9 -167 l3 -154 45 -30 c87 -58 94 -66
27 -31 -37 20 -76 36 -85 36 -10 0 -78 -34 -151 -76 -91 -51 -137 -72 -144
-65 -7 7 -4 10 9 9 25 -2 262 139 275 163 6 12 9 80 7 169 -2 94 1 152 7 154
21 9 27 6 16 -8z m277 -483 c2 -1 0 -7 -5 -15 -6 -10 -14 -7 -36 14 l-28 27
33 -12 c18 -6 35 -12 36 -14z m682 -323 c0 -5 -2 -10 -4 -10 -3 0 -8 5 -11 10
-3 6 -1 10 4 10 6 0 11 -4 11 -10z m-1250 -10 c0 -5 -4 -10 -10 -10 -5 0 -10
5 -10 10 0 6 5 10 10 10 6 0 10 -4 10 -10z m4290 -200 c0 -5 -4 -10 -10 -10
-5 0 -10 5 -10 10 0 6 5 10 10 10 6 0 10 -4 10 -10z"/>
<path d="M4022 3418 c-7 -7 -12 -24 -12 -38 0 -14 5 -31 12 -38 7 -7 24 -12
38 -12 14 0 31 5 38 12 7 7 12 24 12 38 0 14 -5 31 -12 38 -7 7 -24 12 -38 12
-14 0 -31 -5 -38 -12z m46 -61 c2 -12 -3 -17 -17 -17 -12 0 -21 6 -21 13 0 31
32 34 38 4z"/>
<path d="M3856 2934 c-19 -18 -21 -55 -4 -72 19 -19 66 -15 78 7 15 28 13 48
-3 27 -18 -24 -61 -18 -65 10 -2 13 5 24 20 32 17 8 19 11 6 11 -9 1 -24 -6
-32 -15z"/>
<path d="M4324 2875 c-15 -23 -15 -27 0 -50 38 -57 116 -12 88 50 -9 19 -19
25 -42 25 -21 0 -34 -8 -46 -25z m80 -50 c-8 -20 -43 -19 -51 1 -3 9 0 20 8
24 18 12 50 -7 43 -25z"/>
<path d="M3447 2529 c-5 -18 -12 -21 -46 -17 -23 2 -41 0 -41 -4 0 -12 74 -68
81 -60 9 8 23 102 16 102 -2 0 -7 -10 -10 -21z"/>
<path d="M4495 2189 c-10 -15 3 -25 16 -12 7 7 7 13 1 17 -6 3 -14 1 -17 -5z"/>
<path d="M3282 1369 c2 -7 10 -15 17 -17 8 -3 12 1 9 9 -2 7 -10 15 -17 17 -8
3 -12 -1 -9 -9z"/>
</g>
</svg>
